<?xml version="1.0" encoding="utf-8"?>
<!-- Generator: Adobe Illustrator 18.1.1, SVG Export Plug-In . SVG Version: 6.00 Build 0)  -->
<!DOCTYPE svg PUBLIC "-//W3C//DTD SVG 1.1//EN" "http://www.w3.org/Graphics/SVG/1.1/DTD/svg11.dtd">
<svg version="1.1" id="Layer_1" xmlns="http://www.w3.org/2000/svg" xmlns:xlink="http://www.w3.org/1999/xlink" x="0px" y="0px"
	 viewBox="0 0 804 546" enable-background="new 0 0 804 546" xml:space="preserve">
<rect x="2" y="2" fill="#E6E7E8" stroke="#ABC3CE" stroke-width="0.5" stroke-miterlimit="10" width="800" height="542"/>
<line fill="none" stroke="#ABC3CE" stroke-width="0.5" stroke-miterlimit="10" x1="802.1" y1="30.7" x2="1.9" y2="30.7"/>
<g>
	<text transform="matrix(1.003 0 0 1 14.0568 21.0921)" fill="#414042" font-family="'ArialMT'" font-size="12.5895">RESERVOIR DOGS Message Console - ICE Chat</text>
</g>
<g>
	<rect x="13.4" y="438.4" fill="#FFFFFF" width="684.9" height="94.6"/>
	<path fill="#ABC3CE" d="M698.1,438.6v94.1H13.6v-94.1H698.1 M698.6,438.1H13.1v95.1h685.4V438.1L698.6,438.1z"/>
</g>
<g>
	<g>
		<path fill="#F1F2F2" d="M13.4,121V98c0-1,0.8-1.8,1.8-1.8h76.1V121H13.4z"/>
		<path fill="#ABC3CE" d="M91,96.5v24.2H13.6V98c0-0.8,0.7-1.5,1.5-1.5H91 M91.5,96H15.1c-1.1,0-2,0.9-2,2v23.2h78.3V96L91.5,96z"/>
	</g>
	<text transform="matrix(1.003 0 0 1 18.8936 114.1135)" fill="#414042" font-family="'ArialMT'" font-size="12.5895">Joe Cabot*</text>
</g>
<g>
	<g>
		<path fill="#F1F2F2" d="M13.4,93V70.1c0-1,0.8-1.8,1.8-1.8H94V93H13.4z"/>
		<path fill="#ABC3CE" d="M93.8,68.6v24.2H13.6V70.1c0-0.8,0.7-1.5,1.5-1.5H93.8 M94.3,68.1H15.1c-1.1,0-2,0.9-2,2v23.2h81.1V68.1
			L94.3,68.1z"/>
	</g>
	<text transform="matrix(1.003 0 0 1 18.8936 86.137)" fill="#414042" font-family="'ArialMT'" font-size="12.5895">Mr Orange*</text>
</g>
<g>
	<g>
		<path fill="#FFFFFF" d="M335.1,93V65.9c0-1,0.8-1.8,1.8-1.8h63.5V93H335.1z"/>
		<path fill="#ABC3CE" d="M400.1,64.4v28.4h-64.7V65.9c0-0.8,0.7-1.5,1.5-1.5H400.1 M400.6,63.9h-63.7c-1.1,0-2,0.9-2,2v27.4h65.7
			V63.9L400.6,63.9z"/>
	</g>
	<text transform="matrix(1.003 0 0 1 340.6241 86.137)" fill="#414042" font-family="'ArialMT'" font-size="12.5895">Mr Pink*</text>
</g>
<g>
	<g>
		<path fill="#F1F2F2" d="M97.3,93V70.1c0-1,0.8-1.8,1.8-1.8h87.3V93H97.3z"/>
		<path fill="#ABC3CE" d="M186.1,68.6v24.2H97.6V70.1c0-0.8,0.7-1.5,1.5-1.5H186.1 M186.6,68.1H99.1c-1.1,0-2,0.9-2,2v23.2h89.5
			V68.1L186.6,68.1z"/>
	</g>
	<text transform="matrix(1.003 0 0 1 102.8229 86.137)" fill="#414042" font-family="'ArialMT'" font-size="12.5895">Mr Rainbow*</text>
</g>
<g>
	<g>
		<path fill="#F1F2F2" d="M189.6,93V70.1c0-1,0.8-1.8,1.8-1.8h62.1V93H189.6z"/>
		<path fill="#ABC3CE" d="M253.2,68.6v24.2h-63.3V70.1c0-0.8,0.7-1.5,1.5-1.5H253.2 M253.7,68.1h-62.3c-1.1,0-2,0.9-2,2v23.2h64.3
			V68.1L253.7,68.1z"/>
	</g>
	<text transform="matrix(1.003 0 0 1 195.146 86.137)" fill="#414042" font-family="'ArialMT'" font-size="12.5895">Mr Red*</text>
</g>
<g>
	<g>
		<path fill="#F1F2F2" d="M256.8,93V70.1c0-1,0.8-1.8,1.8-1.8h73.3V93H256.8z"/>
		<path fill="#ABC3CE" d="M331.6,68.6v24.2H257V70.1c0-0.8,0.7-1.5,1.5-1.5H331.6 M332.1,68.1h-73.5c-1.1,0-2,0.9-2,2v23.2h75.5
			V68.1L332.1,68.1z"/>
	</g>
	<text transform="matrix(1.003 0 0 1 262.2902 86.137)" fill="#414042" font-family="'ArialMT'" font-size="12.5895">Mr White*</text>
</g>
<g>
	<g>
		<path fill="#F1F2F2" d="M94.5,121V98c0-1,0.8-1.8,1.8-1.8h88.7V121H94.5z"/>
		<path fill="#ABC3CE" d="M184.7,96.5v24.2H94.8V98c0-0.8,0.7-1.5,1.5-1.5H184.7 M185.2,96H96.3c-1.1,0-2,0.9-2,2v23.2h90.9V96
			L185.2,96z"/>
	</g>
	<text transform="matrix(1 0 0 1 100.0074 114.1145)" fill="#414042" font-family="'ArialMT'" font-size="12.5895">Marvin Nash*</text>
</g>
<g>
	<g>
		<path fill="#F1F2F2" d="M188.7,121V98c0-1,0.8-1.8,1.8-1.8h70.5V121H188.7z"/>
		<path fill="#ABC3CE" d="M260.7,96.5v24.2h-71.7V98c0-0.8,0.7-1.5,1.5-1.5H260.7 M261.2,96h-70.7c-1.1,0-2,0.9-2,2v23.2h72.7V96
			L261.2,96z"/>
	</g>
	<text transform="matrix(1 0 0 1 194.1955 114.1145)" fill="#414042" font-family="'ArialMT'" font-size="12.5895">Mr Black*</text>
</g>
<g>
	<g>
		<path fill="#F1F2F2" d="M264.2,121V98c0-1,0.8-1.8,1.8-1.8h78.9V121H264.2z"/>
		<path fill="#ABC3CE" d="M344.6,96.5v24.2h-80.1V98c0-0.8,0.7-1.5,1.5-1.5H344.6 M345.1,96H266c-1.1,0-2,0.9-2,2v23.2h81.1V96
			L345.1,96z"/>
	</g>
	<text transform="matrix(1 0 0 1 269.7321 114.1145)" fill="#414042" font-family="'ArialMT'" font-size="12.5895">Mr Blonde*</text>
</g>
<g>
	<g>
		<path fill="#F1F2F2" d="M348.2,121V98c0-1,0.8-1.8,1.8-1.8H412V121H348.2z"/>
		<path fill="#ABC3CE" d="M411.8,96.5v24.2h-63.3V98c0-0.8,0.7-1.5,1.5-1.5H411.8 M412.3,96h-62.3c-1.1,0-2,0.9-2,2v23.2h64.3V96
			L412.3,96z"/>
	</g>
	<text transform="matrix(1 0 0 1 353.6622 114.1145)" fill="#414042" font-family="'ArialMT'" font-size="12.5895">Mr Blue*</text>
</g>
<g>
	<g>
		<path fill="#F1F2F2" d="M415.3,121V98c0-1,0.8-1.8,1.8-1.8h74.7V121H415.3z"/>
		<path fill="#ABC3CE" d="M491.5,96.5v24.2h-75.9V98c0-0.8,0.7-1.5,1.5-1.5H491.5 M492,96h-74.9c-1.1,0-2,0.9-2,2v23.2H492V96
			L492,96z"/>
	</g>
	<text transform="matrix(1 0 0 1 420.8057 114.1145)" fill="#414042" font-family="'ArialMT'" font-size="12.5895">Mr Brown*</text>
</g>
<g>
	<g>
		<path fill="#F1F2F2" d="M495,121V98c0-1,0.8-1.8,1.8-1.8h78.9V121H495z"/>
		<path fill="#ABC3CE" d="M575.4,96.5v24.2h-80.1V98c0-0.8,0.7-1.5,1.5-1.5H575.4 M575.9,96h-79.1c-1.1,0-2,0.9-2,2v23.2h81.1V96
			L575.9,96z"/>
	</g>
	<text transform="matrix(1 0 0 1 500.5391 114.1145)" fill="#414042" font-family="'ArialMT'" font-size="12.5895">Mr Chrome*</text>
</g>
<g>
	<g>
		<path fill="#F1F2F2" d="M579,121V98c0-1,0.8-1.8,1.8-1.8h81.7V121H579z"/>
		<path fill="#ABC3CE" d="M662.1,96.5v24.2h-82.9V98c0-0.8,0.7-1.5,1.5-1.5H662.1 M662.6,96h-81.9c-1.1,0-2,0.9-2,2v23.2h83.9V96
			L662.6,96z"/>
	</g>
	<text transform="matrix(1 0 0 1 584.4689 114.1145)" fill="#414042" font-family="'ArialMT'" font-size="12.5895">Mr Maroon*</text>
</g>
<g>
	<g>
		<path fill="#F1F2F2" d="M665.7,121V98c0-1,0.8-1.8,1.8-1.8h88.7V121H665.7z"/>
		<path fill="#ABC3CE" d="M755.9,96.5v24.2h-89.9V98c0-0.8,0.7-1.5,1.5-1.5H755.9 M756.4,96h-88.9c-1.1,0-2,0.9-2,2v23.2h90.9V96
			L756.4,96z"/>
	</g>
	<text transform="matrix(1 0 0 1 671.1963 114.1145)" fill="#414042" font-family="'ArialMT'" font-size="12.5895">Mr Nice Guy*</text>
</g>
<g>
	<rect x="704.1" y="438.1" fill="#667D89" width="86.7" height="25.2"/>
	<text transform="matrix(1 0 0 1 713.3831 454.5823)" fill="#FFFFFF" font-family="'OpenSans-Light'" font-size="12.5895">Group Send</text>
</g>
<g>
	
		<rect x="704.1" y="468.9" fill="#FFFFFF" stroke="#ABC3CE" stroke-width="0.5" stroke-miterlimit="10" width="86.7" height="25.2"/>
	<rect x="769.9" y="473.1" fill="#667D89" width="16.8" height="16.8"/>
	<polygon fill="#FFFFFF" points="772.7,478.7 778.2,484.3 783.9,478.7 	"/>
	<text transform="matrix(1 0 0 1 710.9083 486.591)" fill="#667D89" font-family="'OpenSans-Light'" font-size="12.5895">Send To:</text>
</g>
<rect x="13.1" y="125.1" fill="#FFFFFF" stroke="#ABC3CE" stroke-width="0.5" stroke-miterlimit="10" width="777.7" height="307.7"/>
<g>
	<defs>
		<rect id="SVGID_1_" x="13.1" y="125.1" width="777.7" height="307.7"/>
	</defs>
	<use xlink:href="#SVGID_1_"  overflow="visible" fill="#FFFFFF"/>
	<clipPath id="SVGID_2_">
		<use xlink:href="#SVGID_1_"  overflow="visible"/>
	</clipPath>
	<g clip-path="url(#SVGID_2_)">
		<rect x="13.1" y="125.1" fill="none" width="777.7" height="99.8"/>
		<text transform="matrix(1 0 0 1 18.1251 138.6992)"><tspan x="0" y="0" fill="#414042" font-family="'ArialMT'" font-size="12">5/4/17 2:19:18 PM XYZ Trading : (MrPink) sold 200 at 30</tspan><tspan x="0" y="14.4" fill="#414042" font-family="'ArialMT'" font-size="12">5/4/17 2:19:24 PM Broker1 : ty!</tspan><tspan x="0" y="28.8" fill="#414042" font-family="'ArialMT'" font-size="12">5/4/17 2:19:27 PM Broker1 : done on 200</tspan><tspan x="0" y="43.2" fill="#414042" font-family="'ArialMT'" font-size="12">5/4/17 2:19:30 PM XYZ Trading : (MrPink) ty</tspan><tspan x="0" y="57.6" fill="#414042" font-family="'ArialMT'" font-size="12">5/4/17 2:19:40 PM Broker1 : July CS - OUT</tspan><tspan x="0" y="72" fill="#414042" font-family="'ArialMT'" font-size="12">5/4/17 2:32:12 PM Broker1 : Trade Confirm</tspan></text>
	</g>
	<g clip-path="url(#SVGID_2_)">
		<rect x="13.1" y="224.9" fill="none" width="777.7" height="211.4"/>
		<text transform="matrix(1 0 0 1 18.1251 240.2224)"><tspan x="0" y="0" fill="#414042" font-family="'ArialMT'" font-size="12">Cleared 1:21 PM CT</tspan><tspan x="0" y="14.4" fill="#414042" font-family="'ArialMT'" font-size="12">Company: XYZ Trading LLC</tspan><tspan x="0" y="28.8" fill="#414042" font-family="'ArialMT'" font-size="12">Trader: MrPink</tspan><tspan x="0" y="43.2" fill="#414042" font-family="'ArialMT'" font-size="12">Account: 1234A</tspan><tspan x="0" y="57.6" fill="#414042" font-family="'ArialMT'" font-size="12">Clearing Party: NYMEX</tspan><tspan x="0" y="72" fill="#414042" font-family="'ArialMT'" font-size="12">Trade ID: 5465123</tspan><tspan x="0" y="86.4" fill="#414042" font-family="'ArialMT'" font-size="12">Summary: Sell 200 Dec 17 BV 40.00 Put at 0.30 </tspan><tspan x="0" y="115.2" fill="#414042" font-family="'ArialMT'" font-size="12">[BLOCK] Sell 100 Dec 17 BV 40.00 Put at 0.30</tspan><tspan x="0" y="129.6" fill="#414042" font-family="'ArialMT'" font-size="12">[BLOCK] Sell 100 Dec 17 BV 40.00 Put at 0.30</tspan><tspan x="0" y="158.4" fill="#414042" font-family="'ArialMT'" font-size="12">Thank you for letting us compete for your business </tspan><tspan x="0" y="187.2" fill="#414042" font-family="'ArialMT'" font-size="12">Automatic trade confirmation, POWERED BY CLEAR™</tspan></text>
	</g>
	<use xlink:href="#SVGID_1_"  overflow="visible" fill="none" stroke="#ABC3CE" stroke-width="0.25" stroke-miterlimit="10"/>
</g>
</svg>
